<?xml version="1.0" encoding="utf-8"?>
<!-- Generator: Adobe Illustrator 24.0.1, SVG Export Plug-In . SVG Version: 6.00 Build 0)  -->
<svg version="1.1" id="ico" xmlns="http://www.w3.org/2000/svg" xmlns:xlink="http://www.w3.org/1999/xlink" x="0px" y="0px"
	 width="50px" height="50px" viewBox="0 0 50 50" style="enable-background:new 0 0 50 50;" xml:space="preserve">
<path d="M10.293,14.797c-0.036,0.029-0.068,0.059-0.098,0.095c-0.013,0.015-0.03,0.024-0.042,0.041
	c-0.012,0.017-0.013,0.038-0.023,0.056c-0.022,0.039-0.038,0.079-0.052,0.123c-0.013,0.042-0.021,0.082-0.025,0.124
	c-0.002,0.021-0.012,0.04-0.012,0.062v19.402c0,0.359,0.291,0.65,0.65,0.65h28.617c0.359,0,0.65-0.291,0.65-0.65V15.299
	c0-0.022-0.01-0.041-0.012-0.062c-0.004-0.042-0.013-0.083-0.025-0.124c-0.013-0.044-0.03-0.084-0.052-0.123
	c-0.01-0.018-0.011-0.038-0.023-0.056c-0.011-0.017-0.029-0.026-0.042-0.041c-0.029-0.036-0.061-0.066-0.097-0.094
	c-0.031-0.025-0.062-0.046-0.096-0.065c-0.038-0.021-0.077-0.035-0.119-0.048c-0.04-0.012-0.079-0.02-0.121-0.025
	c-0.022-0.002-0.041-0.013-0.063-0.013H10.691c-0.022,0-0.041,0.01-0.063,0.013c-0.042,0.004-0.08,0.012-0.12,0.024
	c-0.043,0.013-0.082,0.028-0.121,0.048C10.353,14.752,10.323,14.773,10.293,14.797z M11.342,34.051V16.526l13.293,9.013
	c0.11,0.074,0.238,0.112,0.365,0.112s0.255-0.038,0.365-0.112l13.293-9.013v17.525H11.342z M12.809,15.949h24.381L25,24.215
	L12.809,15.949z"/>
</svg>
